<?xml version="1.0" encoding="UTF-8"?>
<svg id="Warstwa_1" data-name="Warstwa 1" xmlns="http://www.w3.org/2000/svg" viewBox="0 0 360 360">
  <defs>
    <style>
      .cls-1 {
        fill: #233d4d;
      }

      .cls-2 {
        fill: #fe7f2d;
      }

      .cls-3 {
        fill: #f5fbe6;
      }
    </style>
  </defs>
  <circle class="cls-3" cx="180" cy="180" r="180"/>
  <g>
    <path class="cls-2" d="M253.04,47.26c-45.04-21.01-99.22-20.58-145.4-.71C54.34,69.47,23.59,119.54,22.81,176.78c-.89,65.97,38.56,123.13,102.31,142.94,44.95,13.97,91.36,11.49,133.58-9.98,50.34-25.6,78.29-74.49,78.5-129.82.22-58.2-31.23-107.96-84.16-132.66ZM182.29,269.81c-52.07,1.2-90.54-40.21-89.73-92.97.73-47.67,34.24-84.57,82.27-86.55,50.29-2.08,90.05,34.38,92.12,85.68,2.13,52.64-35.74,92.71-84.67,93.84Z"/>
    <circle class="cls-1" cx="212.99" cy="201.95" r="33.19"/>
  </g>
</svg>