<?xml version="1.0" encoding="UTF-8"?>
<svg id="Warstwa_1" data-name="Warstwa 1" xmlns="http://www.w3.org/2000/svg" viewBox="0 0 3109.27 360">
  <defs>
    <style>
      .cls-1 {
        fill: #fe7f2d;
      }

      .cls-2 {
        fill: #f5fbe6;
      }
    </style>
  </defs>
  <path class="cls-2" d="M2427.79,349.75c-24.44,4.61-47.01,1.87-71.93,2.2l-163.92-200.23-2.49,200.36-79.92.11-.78-343.72,71.2-.63,162.37,202.93,2.82-203.05,80.84.32,1.81,341.71Z"/>
  <path class="cls-2" d="M2755.03,209.21l-159.93,1.05c-.78,26.49-1.48,50.96,1.03,77.06l186.41.31c1.58,22.32,1.58,42.32-.02,65.02l-270.62.02.1-344.78,262.96-.09c2.18,22.59,1.13,43.22.65,65.1l-180.49.97.25,71.32,159.51,1.15.15,62.88Z"/>
  <path class="cls-2" d="M2051.48,352.62l-303.8.17c-2.24-17.73-.63-33.54-.89-52.44l184.88-226.04-180.29-1.53c-1.13-22.84-1.29-42.84.1-65.52l291.16.58.2,51.62-115.74,141.7c-23.23,28.44-46.17,53.97-67.79,85.06l192.18.73c1.34,22.26,1.36,41.65-.01,65.67Z"/>
  <path class="cls-2" d="M3038.64,346.51c-73.07,25.77-149.81,11.92-215.13-26.06l26.9-66.06c45.5,32.83,99.08,47.74,150.3,34.92,15.58-3.9,26.41-17.71,26.18-31.58-.23-14.14-12.15-26.17-27.01-30.22l-87.98-23.97c-25.07-6.83-48.39-17.91-64.37-39.1-19.22-25.48-21.96-57.18-11.99-87.94,29.85-92.09,187.89-89.12,259.02-45.63-6.66,23.53-13.34,43.06-22.77,63.8-40.72-20.1-81.73-32.04-125.05-23.92-20.71,3.88-38.55,19.94-33.59,40.9,3.66,15.47,19.18,22.44,32.79,26.15l89.98,24.57c22.59,6.17,46.26,17.83,59.2,39.06,32.75,53.74,6.44,122.87-56.5,145.07Z"/>
  <path class="cls-1" d="M597.3,350.65c-28.01,3.57-55.93,1.94-84.89.99l-.15-277.01-110.89-1.42-.24-65.74,307.83.03c1.98,22.38,1.41,42.57.6,65.79l-112.28,1.31.02,276.05Z"/>
  <path class="cls-2" d="M1684.3,349.88c-28.43,4.73-53.83,1.26-83.23,2.39l-.73-344.3,83.13-.03.82,341.94Z"/>
  <path class="cls-2" d="M1535.48,246.83c-3.32-32.2-25.15-59.27-62.29-72.15,50.71-30.81,60.14-92.96,23.46-134.49-23.52-21.77-53.99-31.07-87.02-31.23l-194.03-.94-.12,343.97,194.32-.15c27.67-.02,54.44-4.89,79.25-16.06,35-17.28,50.37-50.71,46.43-88.94ZM1394.43,70.92c20.99.24,36.26,14.67,38.44,31.8,7.79,61.02-93.76,41.7-133.35,44.54l-.1-77.41,95.01,1.07ZM1300.09,290.26l-.9-82.23c46.32,4.9,147.65-20.62,152.39,38.49,5.15,64.26-105.51,38.99-151.48,43.74Z"/>
  <path class="cls-1" d="M279.21,19.02c-54.62-25.48-120.32-24.95-176.33-.86C38.25,45.96.96,106.68.02,176.1c-1.09,80.01,46.77,149.32,124.07,173.34,54.51,16.94,110.79,13.93,161.99-12.11,61.04-31.04,94.94-90.34,95.19-157.43.27-70.58-37.87-130.92-102.06-160.87ZM193.41,288.91c-63.15,1.46-109.79-48.77-108.81-112.75.89-57.81,41.53-102.56,99.77-104.96,60.98-2.52,109.2,41.69,111.72,103.91,2.58,63.83-43.35,112.43-102.67,113.8Z"/>
  <path class="cls-1" d="M1106.63,167.59c-4.06-62.12-40.58-118.42-100.66-147.35-56.81-27.35-124.16-26.3-182.15,1.04-60.08,28.32-95.32,85.48-97.75,151.03-2.96,79.87,44.49,150.09,119.48,175.47,56.6,19.15,119.81,16.52,174.86-14.84,61.55-35.07,90.62-98.09,86.22-165.36ZM928.03,288.57c-59.83,5.8-110.14-35.48-116.62-97.28-6.43-61.41,33.9-113.77,93.57-119.41,58.34-5.52,110.9,34.82,116.52,98.52,5.53,62.75-35.89,112.59-93.47,118.17Z"/>
  <circle class="cls-2" cx="230.64" cy="206.62" r="33.3"/>
  <circle class="cls-2" cx="956.37" cy="208.72" r="33.3"/>
</svg>